# AST/ASF file generated using VICON BodyLanguage
# -----------------------------------------------
:version 1.10
:name VICON
:units
  mass 1.0
  length 0.45
  angle deg
:documentation
   .ast/.asf automatically generated from VICON data using
   VICON BodyBuilder and BodyLanguage model FoxedUp or BRILLIANT.MOD
:root
   order TX TY TZ RX RY RZ
   axis XYZ
   position 0 0 0  
   orientation 0 0 0 
:bonedata
  begin
     id 1 
     name lhipjoint
     direction 0.662698 -0.695252 0.27831 
     length 2.53073 
     axis 0 0 0  XYZ
  end
  begin
     id 2 
     name lfemur
     direction 0.34202 -0.939693 0  
     length 7.16147  
     axis 0 0 20  XYZ
    dof rx ry rz
    limits (-160.0 20.0)
           (-70.0 70.0)
           (-60.0 70.0)
  end
  begin
     id 3 
     name ltibia
     direction 0.34202 -0.939693 0   
     length 7.63967   
     axis 0 0 20   XYZ
    dof rx
    limits (-10.0 170.0)
  end
  begin
     id 4 
     name lfoot
     direction 0.0938457 -0.257721 0.961651   
     length 1.89793   
     axis -90 7.62852e-016 20   XYZ
    dof rx rz
    limits (-45.0 90.0)
           (-70.0 20.0)
  end
  begin
     id 5 
     name ltoes
     direction -0.00116841 -0.0030592 0.999995   
     length 0.955649   
     axis -90 7.62852e-016 20   XYZ
    dof rx
    limits (-90.0 20.0)
  end
  begin
     id 6 
     name rhipjoint
     direction -0.649445 -0.705948 0.282592   
     length 2.49238  
     axis 0 0 0  XYZ 
  end
  begin
     id 7 
     name rfemur
     direction -0.34202 -0.939693 0   
     length 6.90728   
     axis 0 0 -20   XYZ
    dof rx ry rz
    limits (-160.0 20.0)
           (-70.0 70.0)
           (-70.0 60.0)
  end
  begin
     id 8 
     name rtibia
     direction -0.34202 -0.939693 0   
     length 7.72868   
     axis 0 0 -20   XYZ
    dof rx
    limits (-10.0 170.0)
 end
 begin
     id 9 
     name rfoot
     direction -0.0920068 -0.252865 0.963117   
     length 1.97476  
     axis -90 -7.62852e-016 -20   XYZ
    dof rx rz
    limits (-45.0 90.0)
           (-20.0 70.0)
  end
  begin
     id 10 
     name rtoes
     direction 0.000391322 0.00230649 0.999997   
     length 0.992641   
     axis -90 -7.62852e-016 -20   XYZ
    dof rx
    limits (-90.0 20.0)
  end
  begin
     id 11 
     name lowerback
     direction -0.00875327 0.998321 -0.0572635   
     length 2.20024   
     axis 0 0 0   XYZ
    dof rx ry rz
    limits (-20.0 45.0)
           (-30.0 30.0)
           (-30.0 30.0)
  end
  begin
     id 12 
     name upperback
     direction 0.00753931 0.999972 -0.000360425   
     length 2.20538   
     axis 0 0 0   XYZ
    dof rx ry rz
    limits (-20.0 45.0)
           (-30.0 30.0)
           (-30.0 30.0)
  end
  begin
     id 13 
     name thorax
     direction 0.0117767 0.999601 0.0256663   
     length 2.21508   
     axis 0 0 0   XYZ
    dof rx ry rz
    limits (-20.0 45.0)
           (-30.0 30.0)
           (-30.0 30.0)
  end
  begin
     id 14 
     name lowerneck
     direction 0.060228 0.994909 0.0807986   
     length 1.7607   
     axis 0 0 0   XYZ
    dof rx ry rz
    limits (-20.0 45.0)
           (-30.0 30.0)
           (-30.0 30.0)
  end
  begin
     id 15 
     name upperneck
     direction -0.0563647 0.959594 -0.275685   
     length 1.75612   
     axis 0 0 0   XYZ
    dof rx ry rz
    limits (-20.0 45.0)
           (-30.0 30.0)
           (-30.0 30.0)
  end
  begin
     id 16
     name head
     direction -0.0161544 0.99458 -0.102714  
     length 1.79288  
     axis 0 0 0   XYZ
    dof rx ry rz
    limits (-20.0 45.0)
           (-30.0 30.0)
           (-30.0 30.0)
  end
  begin
     id 17 
     name lclavicle
     direction 0.93913 0.332189 -0.087669  
     length 3.52087  
     axis 0 0 0   XYZ
    dof ry rz
    limits (-20.0 10.0)
           (0.0 20.0)
  end
  begin
     id 18 
     name lhumerus
     direction 1 -4.48974e-011 -2.70836e-027   
     length 5.35289   
     axis -180 -30 -90   XYZ
    dof rx ry rz
    limits (-60.0 90.0)
           (-90.0 90.0)
           (-90.0 90.0)
  end
  begin
     id 19
     name lradius
     direction 1 -4.48961e-011 -9.76021e-027   
     length 3.27727   
     axis -180 -30 -90   XYZ
    dof rx
    limits (-10.0 170.0)
  end
  begin
     id 20
     name lwrist
     direction 1 -4.49103e-011 -2.23668e-026   
     length 1.63864   
     axis 1.44924e-014 90 90   XYZ
    dof ry
    limits (-180.0 0.0)
 end
  begin
     id 21 
     name lhand
     direction 1 3.0697e-005 0.000161777   
     length 0.54443   
     axis 2.85318e-014 90 90   XYZ
    dof rx rz
    limits (-90.0 90.0)
           (-45.0 45.0)
  end
  begin
     id 22 
     name lfingers
     direction 1 -4.49027e-011 -8.9447e-026   
     length 0.438912   
     axis 5.70628e-014 90 90   XYZ
    dof rx
    limits (0.0 90.0)
  end
  begin
     id 23
     name lthumb
     direction 0.707058 2.6516e-005 0.707156   
     length 0.630274   
     axis -90 45 -3.53137e-014   XYZ
    dof rx rz
    limits (-45.0 45.0)
           (-45.0 45.0)
  end
  begin
     id 24 
     name rclavicle
     direction -0.95274 0.284984 -0.105215   
     length 3.43401  
     axis 0 0 0   XYZ 
    dof ry rz
    limits (-10.0 20.0)
           (-20.0 0.0)
  end
  begin
     id 25 
     name rhumerus
     direction -0.999999 -0.000575019 -0.00106829  
     length 5.52077   
     axis -180 30 90   XYZ
    dof rx ry rz
    limits (-90.0 60.0)
           (-90.0 90.0)
           (-90.0 90.0)
  end
  begin
     id 26 
     name rradius
     direction -1 -4.4879e-011 -6.35415e-027   
     length 3.32364   
     axis -180 30 90   XYZ
    dof rx
    limits (-10.0 170.0)
  end
  begin
     id 27 
     name rwrist
     direction -1 -4.49048e-011 -9.98542e-027   
     length 1.66182   
     axis 6.32482e-015 -90 -90   XYZ
    dof ry
    limits (-180.0 0.0)
  end
  begin
     id 28
     name rhand
     direction -1 -4.48978e-011 -1.99771e-026   
     length 0.732235   
     axis 1.27479e-014 -90 -90   XYZ
    dof rx rz
    limits (-90.0 90.0)
           (-45.0 45.0)
  end
  begin
     id 29
     name rfingers
     direction -1 -4.49144e-011 -3.99245e-026   
     length 0.590347   
     axis 2.5496e-014 -90 -90   XYZ
    dof rx
    limits (0.0 90.0)
  end
  begin
     id 30
     name rthumb
     direction -0.707107 -6.35121e-011 0.707107   
     length 0.847624   
     axis -90 -45 -2.82974e-014   XYZ
    dof rx rz
    limits (-45.0 45.0)
           (-45.0 45.0)
  end
:hierarchy
  begin
    root lhipjoint rhipjoint lowerback
    lhipjoint lfemur
    lfemur ltibia
    ltibia lfoot
    lfoot ltoes
    rhipjoint rfemur
    rfemur rtibia
    rtibia rfoot
    rfoot rtoes
    lowerback upperback
    upperback thorax
    thorax lowerneck lclavicle rclavicle
    lowerneck upperneck
    upperneck head
    lclavicle lhumerus
    lhumerus lradius
    lradius lwrist
    lwrist lhand lthumb
    lhand lfingers
    rclavicle rhumerus
    rhumerus rradius
    rradius rwrist
    rwrist rhand rthumb
    rhand rfingers
  end

#!OML:ASF G:\Work\Work\Patient Classification 1\Elijah\terrain1\Elijah.ASF
:FULLY-SPECIFIED
:DEGREES
4136
root 15.9768 20.8211 23.8081 549.698 3.9279 -178.188
lowerback 13.6883 -5.18933 8.28073
upperback -0.849394 -5.28172 1.45563
thorax -9.25018 -2.8399 -1.9241
lowerneck -5.44925 15.0099 13.4206
upperneck 17.7632 23.5413 -14.2179
head 9.81166 11.2597 -3.95096
rclavicle 2.92213e-014 2.38542e-015
rhumerus -41.6111 15.3986 -90.6748
rradius 43.4818
rwrist -4.74389
rhand -15.0206 24.5371
rfingers 7.12502
rthumb 11.1449 -5.14689
lclavicle 2.92213e-014 2.38542e-015
lhumerus -52.2937 9.23157 80.3516
lradius 49.4206
lwrist 18.8971
lhand -19.6902 28.4593
lfingers 7.12502
lthumb 6.63892 58.3352
rfemur -37.7378 -1.42468 27.1512
rtibia 55.5298
rfoot -27.807 -15.1284
rtoes -11.0867
lfemur -37.7049 2.54735 -21.9674
ltibia 91.0243
lfoot 14.0685 -14.0105
ltoes -11.1563
4137
root 15.999 20.8611 23.7299 549.64 4.22571 -178.01
lowerback 13.8586 -4.94111 8.11142
upperback -0.902188 -4.95008 1.53465
thorax -9.34695 -2.67284 -1.80993
lowerneck -5.75328 14.8937 13.1981
upperneck 18.1119 23.4506 -14.1233
head 9.93447 11.197 -3.87789
rclavicle -2.5345e-014 1.5704e-014
rhumerus -41.9766 15.583 -90.9181
rradius 43.5358
rwrist -4.74151
rhand -14.454 24.368
rfingers 7.12502
rthumb 11.6913 -5.28576
lclavicle -2.5345e-014 1.5704e-014
lhumerus -52.6017 9.35389 80.2578
lradius 49.3197
lwrist 18.8579
lhand -20.0838 28.667
lfingers 7.12502
lthumb 6.25891 58.5546
rfemur -36.8154 -1.26199 27.3548
rtibia 54.5636
rfoot -27.2893 -15.3962
rtoes -12.6814
lfemur -39.3104 3.56985 -21.6048
ltibia 92.8607
lfoot 13.178 -13.9843
ltoes -15.8841
4138
root 16.001 20.9154 23.6164 549.269 4.87497 -177.779
lowerback 13.9945 -4.63036 8.21635
upperback -0.754781 -4.50514 1.5149
thorax -9.22698 -2.45514 -1.99473
lowerneck -6.09704 14.8441 13.0937
upperneck 18.501 23.4917 -14.1482
head 10.1321 11.1895 -3.82917
rclavicle -4.23411e-014 -3.37934e-014
rhumerus -42.3407 15.7998 -91.1757
rradius 43.6182
rwrist -4.63075
rhand -13.9521 23.8624
rfingers 7.12502
rthumb 12.1753 -5.76329
lclavicle -4.23411e-014 -3.37934e-014
lhumerus -52.8903 9.49795 80.1176
lradius 49.2736
lwrist 18.7273
lhand -19.8784 29.5516
lfingers 7.12502
lthumb 6.45717 59.4331
rfemur -35.3673 -1.04675 27.468
rtibia 53.5527
rfoot -27.7296 -14.824
rtoes -11.1451
lfemur -40.1332 4.89363 -21.3185
ltibia 94.3517
lfoot 12.0562 -14.0522
ltoes -13.9389
4139
root 16.0122 20.9517 23.5398 549.494 4.28233 -177.567
lowerback 13.6564 -4.68148 8.54018
upperback -0.814428 -4.53914 1.61414
thorax -9.12371 -2.48202 -2.07857
lowerneck -6.39067 14.8537 13.0433
upperneck 18.8224 23.6287 -14.2472
head 10.3299 11.2266 -3.79812
rclavicle -2.49475e-014 -1.19271e-015
rhumerus -42.593 15.9892 -91.4122
rradius 43.8043
rwrist -4.50921
rhand -13.367 22.3134
rfingers 7.12502
rthumb 12.7394 -7.278
lclavicle -2.49475e-014 -1.19271e-015
lhumerus -53.0337 9.8035 79.894
lradius 49.0292
lwrist 18.1988
lhand -19.8162 29.1768
lfingers 7.12502
lthumb 6.51724 59.0565
rfemur -34.8003 -1.60147 27.8128
rtibia 52.6504
rfoot -28.1493 -14.619
rtoes -9.96529
lfemur -42.217 4.97188 -20.8624
ltibia 95.9125
lfoot 11.3139 -13.9258
ltoes -13.1349
4140
root 16.0251 20.9793 23.4661 549.572 3.82255 -177.328
lowerback 13.5594 -4.70103 8.78678
upperback -0.829376 -4.51613 1.72052
thorax -9.09555 -2.47559 -2.11146
lowerneck -6.647 14.8866 12.8462
upperneck 19.0729 23.7717 -14.2382
head 10.4629 11.2674 -3.71602
rclavicle -1.71949e-014 2.38542e-014
rhumerus -42.7189 16.1265 -91.5742
rradius 44.0785
rwrist -4.37747
rhand -12.4573 20.7626
rfingers 7.12502
rthumb 13.6163 -8.77204
lclavicle -1.71949e-014 2.38542e-014
lhumerus -53.0684 10.1392 79.7215
lradius 48.6237
lwrist 17.5505
lhand -20.9015 27.0319
lfingers 7.12502
lthumb 5.46948 56.9413
rfemur -34.1303 -1.9916 28.1611
rtibia 51.8383
rfoot -27.837 -15.0561
rtoes -11.6652
lfemur -44.09 5.16164 -20.4164
ltibia 97.3458
lfoot 10.1114 -13.8071
ltoes -15.3723
4141
root 16.0226 21.0279 23.3362 548.926 4.44897 -177.11
lowerback 13.8385 -4.43769 8.94403
upperback -0.572975 -4.11152 1.67534
thorax -8.94331 -2.27196 -2.33778
lowerneck -7.00546 14.8504 12.565
upperneck 19.4716 23.8439 -14.1639
head 10.6377 11.2694 -3.60458
rclavicle 5.725e-014 -1.31198e-014
rhumerus -42.9077 16.4102 -91.8039
rradius 44.023
rwrist -4.13159
rhand -12.3484 21.3535
rfingers 7.12502
rthumb 13.7212 -8.17416
lclavicle 5.725e-014 -1.31198e-014
lhumerus -53.2967 10.2439 79.6765
lradius 48.3373
lwrist 17.091
lhand -20.2247 29.0269
lfingers 7.12502
lthumb 6.12288 58.9184
rfemur -32.3802 -1.7797 28.2115
rtibia 51.0067
rfoot -27.7416 -15.0254
rtoes -12.7809
lfemur -44.3557 6.37123 -20.1626
ltibia 98.2705
lfoot 8.25178 -13.8903
ltoes -17.5675
4142
root 16.036 21.0475 23.2612 549.049 3.92008 -177.143
lowerback 13.6913 -4.47036 8.94805
upperback -0.717244 -4.16173 1.73402
thorax -9.02006 -2.30274 -2.26685
lowerneck -7.31026 14.7434 12.2736
upperneck 19.9156 23.8458 -14.0876
head 10.808 11.2448 -3.50865
rclavicle 6.92765e-014 -5.04913e-014
rhumerus -43.3241 16.944 -92.2132
rradius 43.5343
rwrist -3.40299
rhand -13.7186 23.7212
rfingers 7.12502
rthumb 12.4004 -5.891
lclavicle 6.92765e-014 -5.04913e-014
lhumerus -53.6992 10.1511 79.6817
lradius 48.1533
lwrist 16.7917
lhand -20.5951 29.1061
lfingers 7.12502
lthumb 5.76525 59.0077
rfemur -31.8345 -2.2616 28.2673
rtibia 50.2607
rfoot -27.7854 -14.9754
rtoes -12.5282
lfemur -46.3248 6.32665 -20.0643
ltibia 99.2635
lfoot 7.52976 -13.853
ltoes -17.0351
4143
root 16.0278 21.0762 23.1514 548.792 3.98549 -177.158
lowerback 13.6106 -4.36004 9.07626
upperback -0.654787 -4.00974 1.68565
thorax -8.90136 -2.23165 -2.43368
lowerneck -7.49067 14.6373 12.0876
upperneck 20.2198 23.8204 -14.0705
head 10.9232 11.218 -3.46374
rclavicle 2.0276e-014 -7.4743e-014
rhumerus -43.7268 17.3887 -92.5297
rradius 43.6402
rwrist -3.71795
rhand -13.3782 22.5678
rfingers 7.12502
rthumb 12.7286 -7.02425
lclavicle 2.0276e-014 -7.4743e-014
lhumerus -53.918 10.2052 79.613
lradius 47.6834
lwrist 16.3881
lhand -20.8602 28.7717
lfingers 7.12502
lthumb 5.50934 58.6801
rfemur -30.7269 -2.57017 28.1446
rtibia 49.499
rfoot -27.8538 -14.6753
rtoes -12.4243
lfemur -47.416 6.79044 -20.1152
ltibia 99.9166
lfoot 6.71767 -13.7541
ltoes -15.6268
